<?xml version="1.0" encoding="utf-8"?>
<!-- Generator: Adobe Illustrator 16.0.0, SVG Export Plug-In . SVG Version: 6.00 Build 0)  -->
<!DOCTYPE svg PUBLIC "-//W3C//DTD SVG 1.1//EN" "http://www.w3.org/Graphics/SVG/1.1/DTD/svg11.dtd">
<svg version="1.1" id="Layer_1" xmlns="http://www.w3.org/2000/svg" xmlns:xlink="http://www.w3.org/1999/xlink" x="0px" y="0px"
	 width="36px" height="36px" viewBox="0 0 36 36" enable-background="new 0 0 36 36" xml:space="preserve">
<path fill="#FFFFFF" d="M13.119,9.473c-0.202,0-0.336,0.134-0.336,0.336v16.804c0,0.201,0.134,0.336,0.336,0.336h3.36
	c0.202,0,0.336-0.135,0.336-0.336V9.809c0-0.202-0.134-0.336-0.336-0.336H13.119z M16.144,26.275h-2.689v-16.13h2.689V26.275z"/>
<path fill="#FFFFFF" d="M21.52,9.473c-0.201,0-0.336,0.134-0.336,0.336v16.804c0,0.201,0.135,0.336,0.336,0.336h3.362
	c0.201,0,0.336-0.135,0.336-0.336V9.809c0-0.202-0.135-0.336-0.336-0.336H21.52z M24.546,26.275h-2.688v-16.13h2.688V26.275z"/>
</svg>
