<?xml version="1.0" encoding="utf-8"?>
<!-- Generator: Adobe Illustrator 16.0.0, SVG Export Plug-In . SVG Version: 6.00 Build 0)  -->
<!DOCTYPE svg PUBLIC "-//W3C//DTD SVG 1.1//EN" "http://www.w3.org/Graphics/SVG/1.1/DTD/svg11.dtd">
<svg version="1.1" id="Layer_1" xmlns="http://www.w3.org/2000/svg" xmlns:xlink="http://www.w3.org/1999/xlink" x="0px" y="0px"
	 width="36px" height="36px" viewBox="0 0 36 36" enable-background="new 0 0 36 36" xml:space="preserve">
<path fill="#FFFFFF" d="M11.347,25.474c0.058,0,0.086,0,0.144-0.029l14.4-7.2c0.145-0.086,0.201-0.259,0.115-0.375
	c-0.028-0.058-0.058-0.086-0.115-0.115l-14.4-7.2c-0.144-0.058-0.317-0.029-0.374,0.115c-0.058,0.029-0.058,0.058-0.058,0.115
	v14.399c0,0.087,0.058,0.202,0.144,0.23C11.231,25.444,11.289,25.474,11.347,25.474z M11.635,11.246l13.479,6.739l-13.479,6.739
	V11.246z"/>
</svg>
